<svg xmlns="http://www.w3.org/2000/svg"  viewBox="0 0 64 64" width="480px" height="480px" fill-rule="evenodd" clip-rule="evenodd" baseProfile="basic"><path fill="#060000" fill-rule="evenodd" d="M31,9.5c12.131,0,22,9.869,22,22	c0,11.113-8.284,20.322-19,21.79V38h4l2-5.029L34,33v-4.73c0-1.254,1.016-2.27,2.27-2.27c0.902,0,1.73,0,1.73,0v-4h-4.255	c-1.524,0-2.985,0.605-4.062,1.683C28.605,24.76,28,26.221,28,27.745c0,2.653,0,5.226,0,5.226h-4V38h4v15.29	C17.284,51.822,9,42.613,9,31.5C9,19.369,18.869,9.5,31,9.5z" clip-rule="evenodd"/></svg>